<mxfile host="app.diagrams.net" agent="Mozilla/5.0 (Windows NT 10.0; Win64; x64) AppleWebKit/537.36 (KHTML, like Gecko) Chrome/132.0.0.0 Safari/537.36 OPR/117.0.0.0" version="26.1.3">
  <diagram name="Strona-1" id="jTIrAtqcbMBAe41HZlu_">
    <mxGraphModel dx="1393" dy="792" grid="1" gridSize="10" guides="1" tooltips="1" connect="1" arrows="1" fold="1" page="1" pageScale="1" pageWidth="827" pageHeight="1169" math="0" shadow="0">
      <root>
        <mxCell id="0" />
        <mxCell id="1" parent="0" />
        <mxCell id="9VrOAtEBfxAGpIFp8gAN-20" value="Administrator" style="shape=umlActor;verticalLabelPosition=bottom;verticalAlign=top;" vertex="1" parent="1">
          <mxGeometry x="100" y="50" width="40" height="80" as="geometry" />
        </mxCell>
        <mxCell id="9VrOAtEBfxAGpIFp8gAN-21" value="Dostawca" style="shape=umlActor;verticalLabelPosition=bottom;verticalAlign=top;" vertex="1" parent="1">
          <mxGeometry x="500" y="50" width="40" height="80" as="geometry" />
        </mxCell>
        <mxCell id="9VrOAtEBfxAGpIFp8gAN-22" value="Firma sprzątająca" style="shape=umlActor;verticalLabelPosition=bottom;verticalAlign=top;" vertex="1" parent="1">
          <mxGeometry x="290" y="410" width="40" height="80" as="geometry" />
        </mxCell>
        <mxCell id="9VrOAtEBfxAGpIFp8gAN-30" style="edgeStyle=orthogonalEdgeStyle;entryX=0.529;entryY=0.188;entryDx=0;entryDy=0;entryPerimeter=0;" edge="1" parent="1" source="9VrOAtEBfxAGpIFp8gAN-20" target="9VrOAtEBfxAGpIFp8gAN-41">
          <mxGeometry relative="1" as="geometry">
            <mxPoint x="210" y="410" as="targetPoint" />
          </mxGeometry>
        </mxCell>
        <mxCell id="9VrOAtEBfxAGpIFp8gAN-31" style="edgeStyle=orthogonalEdgeStyle;entryX=0.571;entryY=0.025;entryDx=0;entryDy=0;entryPerimeter=0;" edge="1" parent="1" source="9VrOAtEBfxAGpIFp8gAN-20" target="9VrOAtEBfxAGpIFp8gAN-40">
          <mxGeometry relative="1" as="geometry">
            <mxPoint x="75" y="480" as="targetPoint" />
          </mxGeometry>
        </mxCell>
        <mxCell id="9VrOAtEBfxAGpIFp8gAN-32" style="edgeStyle=orthogonalEdgeStyle;entryX=0.6;entryY=0.05;entryDx=0;entryDy=0;entryPerimeter=0;" edge="1" parent="1" source="9VrOAtEBfxAGpIFp8gAN-20" target="9VrOAtEBfxAGpIFp8gAN-39">
          <mxGeometry relative="1" as="geometry">
            <mxPoint x="510" y="300" as="targetPoint" />
          </mxGeometry>
        </mxCell>
        <mxCell id="9VrOAtEBfxAGpIFp8gAN-33" style="edgeStyle=orthogonalEdgeStyle;entryX=0.53;entryY=-0.012;entryDx=0;entryDy=0;entryPerimeter=0;" edge="1" parent="1" source="9VrOAtEBfxAGpIFp8gAN-21" target="9VrOAtEBfxAGpIFp8gAN-47">
          <mxGeometry relative="1" as="geometry">
            <mxPoint x="675" y="440" as="targetPoint" />
          </mxGeometry>
        </mxCell>
        <mxCell id="9VrOAtEBfxAGpIFp8gAN-34" style="edgeStyle=orthogonalEdgeStyle;entryX=0.514;entryY=0.963;entryDx=0;entryDy=0;entryPerimeter=0;" edge="1" parent="1" source="9VrOAtEBfxAGpIFp8gAN-22" target="9VrOAtEBfxAGpIFp8gAN-50">
          <mxGeometry relative="1" as="geometry">
            <mxPoint x="270" y="670" as="targetPoint" />
          </mxGeometry>
        </mxCell>
        <mxCell id="9VrOAtEBfxAGpIFp8gAN-45" style="edgeStyle=orthogonalEdgeStyle;rounded=0;orthogonalLoop=1;jettySize=auto;html=1;entryX=0.5;entryY=0;entryDx=0;entryDy=0;" edge="1" parent="1" source="9VrOAtEBfxAGpIFp8gAN-39" target="9VrOAtEBfxAGpIFp8gAN-44">
          <mxGeometry relative="1" as="geometry" />
        </mxCell>
        <mxCell id="9VrOAtEBfxAGpIFp8gAN-39" value="&amp;nbsp;Formularz zgłaszania usterek do dostawcy" style="shape=umlBoundary;whiteSpace=wrap;html=1;" vertex="1" parent="1">
          <mxGeometry x="414" y="270" width="100" height="80" as="geometry" />
        </mxCell>
        <mxCell id="9VrOAtEBfxAGpIFp8gAN-46" style="edgeStyle=orthogonalEdgeStyle;rounded=0;orthogonalLoop=1;jettySize=auto;html=1;entryX=0;entryY=0.5;entryDx=0;entryDy=0;" edge="1" parent="1" source="9VrOAtEBfxAGpIFp8gAN-40" target="9VrOAtEBfxAGpIFp8gAN-44">
          <mxGeometry relative="1" as="geometry" />
        </mxCell>
        <mxCell id="9VrOAtEBfxAGpIFp8gAN-40" value="Sprawdzanie raportów dotyczących sprzętu" style="ellipse;shape=umlControl;whiteSpace=wrap;html=1;" vertex="1" parent="1">
          <mxGeometry x="50" y="550" width="70" height="80" as="geometry" />
        </mxCell>
        <mxCell id="9VrOAtEBfxAGpIFp8gAN-41" value="Zarządzanie sprzętem sportowym" style="ellipse;shape=umlControl;whiteSpace=wrap;html=1;" vertex="1" parent="1">
          <mxGeometry x="170" y="180" width="70" height="80" as="geometry" />
        </mxCell>
        <mxCell id="9VrOAtEBfxAGpIFp8gAN-42" value="Wymiana lub naprawa sprzętu" style="ellipse;shape=umlControl;whiteSpace=wrap;html=1;" vertex="1" parent="1">
          <mxGeometry x="290" y="180" width="70" height="80" as="geometry" />
        </mxCell>
        <mxCell id="9VrOAtEBfxAGpIFp8gAN-43" style="edgeStyle=orthogonalEdgeStyle;rounded=0;orthogonalLoop=1;jettySize=auto;html=1;entryX=0;entryY=0.5;entryDx=0;entryDy=0;entryPerimeter=0;" edge="1" parent="1" source="9VrOAtEBfxAGpIFp8gAN-41" target="9VrOAtEBfxAGpIFp8gAN-42">
          <mxGeometry relative="1" as="geometry" />
        </mxCell>
        <mxCell id="9VrOAtEBfxAGpIFp8gAN-44" value="Baza danych" style="ellipse;shape=umlEntity;whiteSpace=wrap;html=1;" vertex="1" parent="1">
          <mxGeometry x="424" y="550" width="80" height="80" as="geometry" />
        </mxCell>
        <mxCell id="9VrOAtEBfxAGpIFp8gAN-49" style="edgeStyle=orthogonalEdgeStyle;rounded=0;orthogonalLoop=1;jettySize=auto;html=1;entryX=1;entryY=0.5;entryDx=0;entryDy=0;" edge="1" parent="1" source="9VrOAtEBfxAGpIFp8gAN-47" target="9VrOAtEBfxAGpIFp8gAN-44">
          <mxGeometry relative="1" as="geometry" />
        </mxCell>
        <mxCell id="9VrOAtEBfxAGpIFp8gAN-47" value="Podanie terminu dostawy nowego sprzętu" style="shape=umlBoundary;whiteSpace=wrap;html=1;" vertex="1" parent="1">
          <mxGeometry x="610" y="460" width="100" height="80" as="geometry" />
        </mxCell>
        <mxCell id="9VrOAtEBfxAGpIFp8gAN-50" value="Regularne czyszczenie sprzętu" style="ellipse;shape=umlControl;whiteSpace=wrap;html=1;" vertex="1" parent="1">
          <mxGeometry x="170" y="330" width="70" height="80" as="geometry" />
        </mxCell>
        <mxCell id="9VrOAtEBfxAGpIFp8gAN-52" style="edgeStyle=orthogonalEdgeStyle;rounded=0;orthogonalLoop=1;jettySize=auto;html=1;entryX=0.586;entryY=0.075;entryDx=0;entryDy=0;entryPerimeter=0;" edge="1" parent="1" source="9VrOAtEBfxAGpIFp8gAN-41" target="9VrOAtEBfxAGpIFp8gAN-50">
          <mxGeometry relative="1" as="geometry" />
        </mxCell>
      </root>
    </mxGraphModel>
  </diagram>
</mxfile>
